<svg id="Layer_1" data-name="Layer 1" xmlns="http://www.w3.org/2000/svg" viewBox="0 0 588 588"><defs><style>.cls-1{fill:#202020;}.cls-2{fill:#00c2ff;stroke:#00c2ff;stroke-miterlimit:10;stroke-width:25px;}</style></defs><title>faviconn</title><rect class="cls-1" width="588" height="588"/><path class="cls-2" d="M211.91,475.79q-34.07-15.15-51.57-43.91t-17.5-68.76V110q0-12.5,22.19-12.5h4.38q22.19,0,22.19,12.5V365q0,24.38,13.44,43.44t36.88,29.69q23.44,10.63,52.5,10.63,29.37,0,52.82-10.78T384,408.13A73.64,73.64,0,0,0,397.24,365V110q0-12.5,22.19-12.5h4.69Q446,97.47,446,110V363.12q0,40-17.5,68.76t-51.57,43.91Q342.86,491,294.42,490.95T211.91,475.79Z"/></svg>