<svg id="Layer_1" data-name="Layer 1" xmlns="http://www.w3.org/2000/svg" viewBox="0 0 58 58"><defs><style>.cls-1{fill:#202020;}.cls-2{fill:#00c2ff;}</style></defs><title>menus</title><path class="cls-1" d="M9.43,49.55v1.16a3.35,3.35,0,0,0,3.35,3.35H50.65a1.85,1.85,0,0,1,1.85,1.85v.21A1.88,1.88,0,0,1,50.62,58H11.92A6.42,6.42,0,0,1,5.5,51.58V6.42A6.42,6.42,0,0,1,11.92,0H46.08A6.42,6.42,0,0,1,52.5,6.42V39.77a6.42,6.42,0,0,1-6.42,6.42H12.79A3.37,3.37,0,0,0,9.43,49.55Z"/><path class="cls-2" d="M36.23,21.12a3.61,3.61,0,0,1,0,6.26l-5.42,3.13-5.42,3.13A3.61,3.61,0,0,1,20,30.51V18a3.61,3.61,0,0,1,5.42-3.13L30.81,18Z"/></svg>