<svg id="Layer_1" data-name="Layer 1" xmlns="http://www.w3.org/2000/svg" viewBox="0 0 58 58"><defs><style>.cls-1{fill:#00c2ff;}.cls-2{fill:#202020;}</style></defs><title>menus</title><path class="cls-1" d="M38.67,58H19.33A3.71,3.71,0,0,0,23,54.28V40.9a3,3,0,0,1,3-3H32a3,3,0,0,1,3,3V54.28A3.71,3.71,0,0,0,38.67,58Z"/><path class="cls-2" d="M55.77,25.89V54.28A3.72,3.72,0,0,1,52,58H38.67A3.71,3.71,0,0,1,35,54.28V40.9a3,3,0,0,0-3-3H26a3,3,0,0,0-3,3V54.28A3.71,3.71,0,0,1,19.33,58H6a3.71,3.71,0,0,1-3.72-3.72V25.9a11.19,11.19,0,0,1,4.25-8.77L27.62.48a2.22,2.22,0,0,1,2.76,0L51.52,17.13A11.18,11.18,0,0,1,55.77,25.89Z"/></svg>