<svg id="Layer_1" data-name="Layer 1" xmlns="http://www.w3.org/2000/svg" viewBox="0 0 1200 800"><defs><style>.cls-1{fill:#f2f2f2;}.cls-2{fill:#cacaca;}</style></defs><title>placeholder</title><path class="cls-1" d="M1201,548q0,124.5.1,249c0,3.42-.67,4.09-4.1,4.09q-596-.15-1192,0c-3.42,0-4.1-.67-4.1-4.09Q1.08,656,1,515c1.43-6.5,5.8-11.21,9.73-16.22,12.58-16,26.1-31.11,42.25-43.71,14.13-11,30.45-16.24,47.89-18.49,30.37-3.93,58.91,3.18,86.57,14.92,31.19,13.24,59.31,31.58,86.21,52,25.77,19.55,50.16,40.74,74.08,62.43s52.22,20.52,75.67,6.84c16.54-9.65,29.87-22.89,42.29-37,32-36.45,57.24-77.75,84-117.92,17.38-26.06,34.78-52.1,53.5-77.22,20.15-27,42-52.61,66.82-75.46,25.77-23.73,54.5-42.77,88.61-52.49,27.5-7.84,55.17-7.82,83-1.36,33.87,7.87,64.62,22.8,93.74,41.33,27.34,17.39,52.35,37.76,76.14,59.75q21.3,19.7,41.24,40.72c18.44,19.44,35.9,39.79,52.85,60.57,31,38,59.74,77.59,87.29,118.1C1196.36,536.81,1199.51,542,1201,548Z"/><path class="cls-2" d="M1201,548c-12-17.4-23.94-34.89-36.15-52.17q-36.35-51.45-77-99.6a921.44,921.44,0,0,0-69.63-74.36c-38-36-78.77-68.34-126.68-90.54-28.85-13.36-58.87-22.45-91-22.25a158.6,158.6,0,0,0-65.31,14.78c-26.24,12-48.85,29-69.59,48.86-32.33,30.92-59.28,66.25-84.39,103-24.05,35.22-47.33,71-71.35,106.23-18.4,27-37.83,53.25-62,75.6a123.61,123.61,0,0,1-28.45,20.15c-24.57,12.33-51.4,10-73.89-10.35C313,537.88,279.86,508.94,243,484.72c-26.57-17.46-54.32-32.55-85.26-40.93-27.3-7.39-54.51-8.45-81.6,1.28-13.85,5-24.87,14-35.41,23.78-15,13.87-27,30.35-39.73,46.15Q1,260.31.92,5.61C.92,2.07,1.38.89,5.39.89Q601,1.07,1196.62.89c4,0,4.46,1.21,4.46,4.73Q1200.94,276.81,1201,548Z"/><path class="cls-1" d="M398,357a49.66,49.66,0,0,1-49.71,50c-27.23-.1-49.34-22.77-49.28-50.54.05-26.87,22.53-49.39,49.34-49.45A49.68,49.68,0,0,1,398,357Z"/></svg>