<svg id="Layer_1" data-name="Layer 1" xmlns="http://www.w3.org/2000/svg" viewBox="0 0 338 338"><defs><style>.cls-1{fill:#00c2ff;}</style></defs><title>questionMark</title><path class="cls-1" d="M168.94,20A148.95,148.95,0,0,1,274.26,274.26,148.95,148.95,0,0,1,63.62,63.62,148,148,0,0,1,168.94,20m0-20A168.94,168.94,0,1,0,337.88,168.94,168.94,168.94,0,0,0,168.94,0Z"/><path class="cls-1" d="M174.82,222H153.39q.15-23.21.67-28.94a34.27,34.27,0,0,1,3.2-11.46,29.53,29.53,0,0,1,6-8.93q3.35-3.2,15.85-10.19,13.54-7.59,18.67-11.83a37.7,37.7,0,0,0,12.72-28.2q0-17-12.27-26.63t-28.94-9.67q-37.79,0-46.12,43.89L101,125.27q11.16-60,69.48-60,29.76,0,48.06,16.29t18.3,41.73q0,33.18-38.09,53-16.67,8.78-20.38,13.76t-3.72,15.55Zm5.06,21.28v29.31H149.82V243.26Z"/></svg>