<svg width="22" height="22" viewBox="0 0 22 22" fill="none" xmlns="http://www.w3.org/2000/svg">
<path d="M8.80802 0C4.06841 0 0.234955 3.83345 0.234955 8.57307C0.234955 13.3127 4.06841 17.1461 8.80802 17.1461C10.5002 17.1461 12.0663 16.6497 13.394 15.8066L19.5874 22L21.7307 19.8567L15.616 13.7579C16.7153 12.3159 17.3811 10.5292 17.3811 8.57307C17.3811 3.83345 13.5476 0 8.80802 0ZM8.80802 2.01719C12.4386 2.01719 15.3639 4.94251 15.3639 8.57307C15.3639 12.2036 12.4386 15.1289 8.80802 15.1289C5.17747 15.1289 2.25215 12.2036 2.25215 8.57307C2.25215 4.94251 5.17747 2.01719 8.80802 2.01719Z" fill="#EFEFEF"/>
</svg>
