<svg width="14" height="13" viewBox="0 0 14 13" fill="none" xmlns="http://www.w3.org/2000/svg">
<path d="M6.25492 0.953515C6.40459 0.49286 7.0563 0.49286 7.20597 0.953515L8.35378 4.48611C8.42072 4.69212 8.6127 4.8316 8.82931 4.8316H12.5437C13.0281 4.8316 13.2294 5.4514 12.8376 5.73611L9.83259 7.91937C9.65734 8.04669 9.58401 8.27237 9.65095 8.47838L10.7988 12.011C10.9484 12.4716 10.4212 12.8547 10.0293 12.57L7.02434 10.3867C6.84909 10.2594 6.6118 10.2594 6.43655 10.3867L3.43155 12.57C3.0397 12.8547 2.51246 12.4716 2.66213 12.011L3.80994 8.47838C3.87688 8.27237 3.80355 8.04669 3.6283 7.91937L0.623303 5.7361C0.231447 5.4514 0.432835 4.8316 0.917197 4.8316H4.63158C4.84819 4.8316 5.04017 4.69212 5.10711 4.48611L6.25492 0.953515Z" fill="#00C2FF"/>
</svg>
